<svg xmlns="http://www.w3.org/2000/svg" version="1.1" xmlns:xlink="http://www.w3.org/1999/xlink" xmlns:svgjs="http://svgjs.dev/svgjs" viewBox="0 0 1422 800"><defs><linearGradient x1="50%" y1="0%" x2="50%" y2="100%" id="oooscillate-grad"><stop stop-color="hsl(0, 0%, 100%)" stop-opacity="1" offset="0%"></stop><stop stop-color="hsl(0, 0%, 0%)" stop-opacity="1" offset="100%"></stop></linearGradient></defs><g stroke-width="2.5" stroke="url(#oooscillate-grad)" fill="none" stroke-linecap="round"><path d="M 0 1568 Q 355.5 125 711 400 Q 1066.5 675 1422 1568" stroke-dasharray="9 1" opacity="0.95"></path><path d="M 0 1536 Q 355.5 125 711 400 Q 1066.5 675 1422 1536" stroke-dasharray="0 16" opacity="0.81"></path><path d="M 0 1504 Q 355.5 125 711 400 Q 1066.5 675 1422 1504" stroke-dasharray="10 0" opacity="0.94"></path><path d="M 0 1472 Q 355.5 125 711 400 Q 1066.5 675 1422 1472" stroke-dasharray="12 10" opacity="0.13"></path><path d="M 0 1440 Q 355.5 125 711 400 Q 1066.5 675 1422 1440" stroke-dasharray="12 3" opacity="0.27"></path><path d="M 0 1408 Q 355.5 125 711 400 Q 1066.5 675 1422 1408" stroke-dasharray="10 11" opacity="0.45"></path><path d="M 0 1376 Q 355.5 125 711 400 Q 1066.5 675 1422 1376" stroke-dasharray="15 2" opacity="0.93"></path><path d="M 0 1344 Q 355.5 125 711 400 Q 1066.5 675 1422 1344" stroke-dasharray="12 14" opacity="0.73"></path><path d="M 0 1312 Q 355.5 125 711 400 Q 1066.5 675 1422 1312" stroke-dasharray="11 7" opacity="0.67"></path><path d="M 0 1280 Q 355.5 125 711 400 Q 1066.5 675 1422 1280" stroke-dasharray="7 8" opacity="0.76"></path><path d="M 0 1248 Q 355.5 125 711 400 Q 1066.5 675 1422 1248" stroke-dasharray="4 4" opacity="0.79"></path><path d="M 0 1216 Q 355.5 125 711 400 Q 1066.5 675 1422 1216" stroke-dasharray="12 2" opacity="0.20"></path><path d="M 0 1184 Q 355.5 125 711 400 Q 1066.5 675 1422 1184" stroke-dasharray="5 9" opacity="0.70"></path><path d="M 0 1152 Q 355.5 125 711 400 Q 1066.5 675 1422 1152" stroke-dasharray="15 1" opacity="0.53"></path><path d="M 0 1120 Q 355.5 125 711 400 Q 1066.5 675 1422 1120" stroke-dasharray="15 14" opacity="0.33"></path><path d="M 0 1088 Q 355.5 125 711 400 Q 1066.5 675 1422 1088" stroke-dasharray="12 5" opacity="0.91"></path><path d="M 0 1056 Q 355.5 125 711 400 Q 1066.5 675 1422 1056" stroke-dasharray="5 3" opacity="0.70"></path><path d="M 0 1024 Q 355.5 125 711 400 Q 1066.5 675 1422 1024" stroke-dasharray="9 4" opacity="0.74"></path><path d="M 0 992 Q 355.5 125 711 400 Q 1066.5 675 1422 992" stroke-dasharray="11 12" opacity="0.80"></path><path d="M 0 960 Q 355.5 125 711 400 Q 1066.5 675 1422 960" stroke-dasharray="11 4" opacity="0.59"></path><path d="M 0 928 Q 355.5 125 711 400 Q 1066.5 675 1422 928" stroke-dasharray="5 3" opacity="0.52"></path><path d="M 0 896 Q 355.5 125 711 400 Q 1066.5 675 1422 896" stroke-dasharray="11 9" opacity="0.31"></path><path d="M 0 864 Q 355.5 125 711 400 Q 1066.5 675 1422 864" stroke-dasharray="1 2" opacity="0.79"></path><path d="M 0 832 Q 355.5 125 711 400 Q 1066.5 675 1422 832" stroke-dasharray="7 13" opacity="0.66"></path><path d="M 0 800 Q 355.5 125 711 400 Q 1066.5 675 1422 800" stroke-dasharray="11 2" opacity="0.46"></path><path d="M 0 768 Q 355.5 125 711 400 Q 1066.5 675 1422 768" stroke-dasharray="7 2" opacity="0.24"></path><path d="M 0 736 Q 355.5 125 711 400 Q 1066.5 675 1422 736" stroke-dasharray="4 0" opacity="0.29"></path><path d="M 0 704 Q 355.5 125 711 400 Q 1066.5 675 1422 704" stroke-dasharray="12 6" opacity="0.62"></path><path d="M 0 672 Q 355.5 125 711 400 Q 1066.5 675 1422 672" stroke-dasharray="6 12" opacity="0.61"></path><path d="M 0 640 Q 355.5 125 711 400 Q 1066.5 675 1422 640" stroke-dasharray="13 9" opacity="0.61"></path><path d="M 0 608 Q 355.5 125 711 400 Q 1066.5 675 1422 608" stroke-dasharray="13 15" opacity="0.71"></path><path d="M 0 576 Q 355.5 125 711 400 Q 1066.5 675 1422 576" stroke-dasharray="0 3" opacity="0.89"></path><path d="M 0 544 Q 355.5 125 711 400 Q 1066.5 675 1422 544" stroke-dasharray="9 14" opacity="0.29"></path><path d="M 0 512 Q 355.5 125 711 400 Q 1066.5 675 1422 512" stroke-dasharray="12 5" opacity="0.82"></path><path d="M 0 480 Q 355.5 125 711 400 Q 1066.5 675 1422 480" stroke-dasharray="6 6" opacity="0.52"></path><path d="M 0 448 Q 355.5 125 711 400 Q 1066.5 675 1422 448" stroke-dasharray="12 9" opacity="0.69"></path><path d="M 0 416 Q 355.5 125 711 400 Q 1066.5 675 1422 416" stroke-dasharray="0 16" opacity="0.71"></path><path d="M 0 384 Q 355.5 125 711 400 Q 1066.5 675 1422 384" stroke-dasharray="5 10" opacity="0.29"></path><path d="M 0 352 Q 355.5 125 711 400 Q 1066.5 675 1422 352" stroke-dasharray="1 10" opacity="0.33"></path><path d="M 0 320 Q 355.5 125 711 400 Q 1066.5 675 1422 320" stroke-dasharray="11 2" opacity="0.99"></path><path d="M 0 288 Q 355.5 125 711 400 Q 1066.5 675 1422 288" stroke-dasharray="12 15" opacity="0.61"></path><path d="M 0 256 Q 355.5 125 711 400 Q 1066.5 675 1422 256" stroke-dasharray="13 14" opacity="0.59"></path><path d="M 0 224 Q 355.5 125 711 400 Q 1066.5 675 1422 224" stroke-dasharray="0 2" opacity="0.90"></path><path d="M 0 192 Q 355.5 125 711 400 Q 1066.5 675 1422 192" stroke-dasharray="1 11" opacity="0.81"></path><path d="M 0 160 Q 355.5 125 711 400 Q 1066.5 675 1422 160" stroke-dasharray="11 13" opacity="0.70"></path><path d="M 0 128 Q 355.5 125 711 400 Q 1066.5 675 1422 128" stroke-dasharray="6 9" opacity="0.98"></path><path d="M 0 96 Q 355.5 125 711 400 Q 1066.5 675 1422 96" stroke-dasharray="15 12" opacity="0.85"></path><path d="M 0 64 Q 355.5 125 711 400 Q 1066.5 675 1422 64" stroke-dasharray="9 12" opacity="0.13"></path></g></svg>